<svg width="58" height="58" viewBox="0 0 58 58" class="icon icon-play" fill="none" xmlns="http://www.w3.org/2000/svg">
<path fill-rule="evenodd" clip-rule="evenodd" d="M28.9985 0.875004C24.2892 0.877555 19.661 2.07782 15.5373 4.33918C15.3169 4.455 15.1218 4.61355 14.9633 4.80559C14.8048 4.99763 14.6862 5.21931 14.6143 5.4577C14.5424 5.69608 14.5187 5.94639 14.5446 6.19403C14.5705 6.44166 14.6455 6.68166 14.7651 6.90002C14.8847 7.11838 15.0467 7.31073 15.2414 7.46584C15.4362 7.62095 15.6599 7.73572 15.8995 7.80344C16.1391 7.87117 16.3898 7.8905 16.6369 7.86031C16.8841 7.83011 17.1227 7.751 17.339 7.62758C20.9161 5.6659 24.9252 4.62701 28.9985 4.62481C42.4808 4.61772 53.3723 15.5151 53.3723 28.9985C53.3723 42.482 42.482 53.3723 28.9985 53.3723C15.5151 53.3723 4.62577 42.4822 4.6248 28.9985C4.62451 24.9154 5.64631 20.8968 7.60194 17.3134C7.73367 17.0966 7.82007 16.8555 7.85591 16.6044C7.89175 16.3533 7.87629 16.0976 7.81046 15.8527C7.74463 15.6078 7.62981 15.3788 7.47294 15.1795C7.31606 14.9803 7.1204 14.8149 6.89778 14.6934C6.67516 14.5719 6.43022 14.4969 6.17776 14.4728C5.9253 14.4487 5.67058 14.4761 5.42901 14.5533C5.18743 14.6304 4.96402 14.7558 4.77229 14.9218C4.58056 15.0878 4.4245 15.291 4.31354 15.519C2.05685 19.6541 0.874663 24.2886 0.875 28.9985C0.876109 44.5084 13.4885 57.1221 28.9985 57.1221C44.5085 57.1221 57.1221 44.5086 57.1221 28.9985C57.1221 13.4886 44.5097 0.866642 28.9985 0.875004ZM10.4656 8.56503C10.2147 8.5607 9.96553 8.60676 9.73279 8.70048C9.50006 8.7942 9.2885 8.93368 9.11066 9.11066C8.75913 9.46226 8.56165 9.93909 8.56165 10.4363C8.56165 10.9335 8.75913 11.4103 9.11066 11.7619C9.28482 11.9365 9.49172 12.075 9.7195 12.1696C9.94729 12.2641 10.1915 12.3127 10.4381 12.3127C10.6847 12.3127 10.9289 12.2641 11.1567 12.1696C11.3845 12.075 11.5914 11.9365 11.7655 11.7619C12.1166 11.4098 12.3134 10.9327 12.3127 10.4355C12.312 9.93833 12.1139 9.46177 11.7619 9.11066C11.417 8.76746 10.9521 8.57181 10.4656 8.56503ZM21.5063 15.8706C21.2585 15.8691 21.0129 15.9168 20.7837 16.0109C20.5545 16.1049 20.3462 16.2434 20.1708 16.4184C19.9955 16.5935 19.8565 16.8015 19.7621 17.0305C19.6676 17.2596 19.6194 17.505 19.6204 17.7528V40.2443C19.6205 40.5691 19.705 40.8883 19.8656 41.1706C20.0261 41.4529 20.2573 41.6887 20.5364 41.8548C20.8155 42.0209 21.1329 42.1117 21.4576 42.1182C21.7824 42.1248 22.1032 42.0469 22.3888 41.8922L43.0273 30.6391C43.3203 30.4769 43.5646 30.2392 43.7346 29.9507C43.9047 29.6622 43.9944 29.3334 43.9944 28.9985C43.9944 28.6637 43.9047 28.3349 43.7346 28.0464C43.5646 27.7579 43.3203 27.5202 43.0273 27.358L22.3888 16.1049C22.1184 15.9553 21.8152 15.8748 21.5063 15.8706ZM23.3738 20.9094L38.2229 28.9912L23.3738 37.0877V20.9094Z" fill="currentColor"/>
</svg>